<svg xmlns="http://www.w3.org/2000/svg" xmlns:xlink="http://www.w3.org/1999/xlink" width="939" zoomAndPan="magnify" viewBox="0 0 704.25 833.249992" height="1111" preserveAspectRatio="xMidYMid meet" version="1.0"><defs><filter x="0%" y="0%" width="100%" height="100%" id="e1494ed5ae"><feColorMatrix values="0 0 0 0 1 0 0 0 0 1 0 0 0 0 1 0 0 0 1 0" color-interpolation-filters="sRGB"/></filter><clipPath id="130ed40d5c"><path d="M 6 0.0703125 L 703.5 0.0703125 L 703.5 812 L 6 812 Z M 6 0.0703125 " clip-rule="nonzero"/></clipPath><mask id="7dc050d092"><g filter="url(#e1494ed5ae)"><rect x="-70.425" width="845.1" fill="#000000" y="-83.324999" height="999.89999" fill-opacity="0.86"/></g></mask><clipPath id="eeda49527c"><path d="M 79 50 L 619 50 L 619 726 L 79 726 Z M 79 50 " clip-rule="nonzero"/></clipPath><clipPath id="f8295175bd"><path d="M 205.015625 0.0703125 L 697.226562 153.101562 L 486.136719 832.039062 L -6.070312 679.003906 Z M 205.015625 0.0703125 " clip-rule="nonzero"/></clipPath><clipPath id="1898f2b8d3"><path d="M 205.015625 0.0703125 L 697.226562 153.101562 L 486.136719 832.039062 L -6.070312 679.003906 Z M 205.015625 0.0703125 " clip-rule="nonzero"/></clipPath><clipPath id="6093d6719a"><rect x="0" width="698" y="0" height="812"/></clipPath></defs><g clip-path="url(#130ed40d5c)"><g mask="url(#7dc050d092)"><g transform="matrix(1, 0, 0, 1, 6, -0.000000000000117475)"><g clip-path="url(#6093d6719a)"><g clip-path="url(#eeda49527c)"><g clip-path="url(#f8295175bd)"><g clip-path="url(#1898f2b8d3)"><path fill="#db6583" d="M 202.449219 552.492188 C 227.132812 560.167969 253.296875 546.414062 260.96875 521.730469 C 268.644531 497.046875 254.894531 470.882812 230.207031 463.210938 C 205.523438 455.535156 179.363281 469.289062 171.6875 493.972656 C 164.054688 518.523438 177.808594 544.6875 202.449219 552.492188 Z M 228.003906 470.300781 C 248.75 476.75 260.199219 498.738281 253.789062 519.355469 C 247.339844 540.097656 225.351562 551.546875 204.734375 545.140625 C 184.121094 538.730469 172.5 516.832031 178.949219 496.085938 C 185.359375 475.472656 207.390625 463.890625 228.003906 470.300781 Z M 198.226562 592.9375 C 247.726562 608.324219 300.394531 580.640625 315.785156 531.140625 C 331.175781 481.640625 303.488281 428.972656 253.988281 413.582031 C 204.492188 398.195312 151.820312 425.878906 136.433594 475.378906 C 121.171875 524.917969 148.769531 577.414062 198.226562 592.9375 Z M 251.746094 420.804688 C 297.304688 434.96875 322.726562 483.335938 308.5625 528.894531 C 294.398438 574.457031 246.03125 599.878906 200.472656 585.714844 C 154.910156 571.550781 129.488281 523.183594 143.652344 477.625 C 157.949219 432.105469 206.273438 406.8125 251.746094 420.804688 Z M 194.136719 633.421875 C 268.449219 656.527344 347.582031 615.039062 370.730469 540.59375 C 393.835938 466.277344 352.347656 387.144531 277.902344 363.996094 C 203.585938 340.894531 124.453125 382.378906 101.308594 456.824219 C 78.292969 531.3125 119.6875 610.273438 194.136719 633.421875 Z M 275.617188 371.351562 C 345.992188 393.230469 385.390625 467.972656 363.507812 538.347656 C 341.628906 608.722656 266.886719 648.121094 196.511719 626.238281 C 126.136719 604.359375 86.738281 529.617188 108.617188 459.242188 C 130.5 388.867188 205.199219 349.601562 275.617188 371.351562 Z M 189.871094 673.996094 C 142.433594 659.390625 102.710938 626.449219 79.636719 582.558594 L 86.351562 579.03125 C 133.148438 667.015625 242.421875 700.414062 330.539062 653.65625 C 418.652344 606.898438 451.921875 497.585938 405.164062 409.46875 C 382.78125 367.519531 344.785156 335.980469 299.355469 321.855469 C 218.746094 297.226562 131.679688 331.351562 89.320312 404.144531 L 82.71875 400.363281 C 134.601562 310.371094 249.613281 279.464844 339.601562 331.34375 C 429.59375 383.226562 460.5 498.238281 408.621094 588.226562 C 364.765625 664.441406 273.902344 700.121094 189.871094 673.996094 Z M 480.105469 559.765625 C 441.394531 683.800781 309.550781 753.105469 185.386719 714.359375 C 157.550781 705.703125 131.609375 691.878906 108.847656 673.859375 L 113.597656 667.847656 C 211.910156 746.21875 355.183594 730 433.421875 631.648438 C 511.660156 533.292969 495.574219 390.0625 397.21875 311.820312 C 314.863281 246.042969 197.914062 245.679688 114.867188 310.859375 L 110.265625 304.824219 C 212.398438 224.554688 360.234375 242.292969 440.460938 344.558594 C 488.230469 405.34375 503.085938 485.847656 480.105469 559.765625 Z M 534.917969 569.179688 L 527.695312 566.933594 C 572.722656 422.113281 491.746094 268.0625 346.925781 223.039062 C 281.40625 202.667969 210.621094 207.585938 148.585938 236.679688 L 145.402344 229.785156 C 286.527344 163.511719 454.714844 224.152344 520.988281 365.277344 C 550.777344 429.253906 555.820312 501.953125 534.917969 569.179688 Z M 603.53125 455.015625 L 595.976562 455.691406 C 581.980469 278.40625 426.863281 146.089844 249.578125 160.085938 C 230.253906 161.566406 211.058594 164.957031 192.242188 169.90625 L 190.351562 162.550781 C 366.316406 115.746094 546.839844 220.542969 593.511719 396.464844 C 598.640625 415.625 602.042969 435.257812 603.53125 455.015625 Z M 250.457031 109.097656 L 249.78125 101.546875 C 401.621094 87.414062 546.910156 166.136719 618.011719 300.988281 L 611.300781 304.515625 C 541.511719 172.375 399.171875 95.292969 250.457031 109.097656 Z M 335.21875 57.84375 L 335.980469 50.304688 C 364.609375 53.15625 392.910156 58.929688 420.480469 67.503906 C 482.496094 86.640625 539.402344 119.882812 586.367188 164.722656 L 581.175781 170.308594 C 534.875 126.109375 479.066406 93.496094 418.105469 74.683594 C 391.058594 66.273438 363.285156 60.664062 335.21875 57.84375 Z M 335.21875 57.84375 " fill-opacity="1" fill-rule="nonzero"/></g></g></g></g></g></g></g></svg>