<svg xmlns="http://www.w3.org/2000/svg" xmlns:xlink="http://www.w3.org/1999/xlink" width="674" zoomAndPan="magnify" viewBox="0 0 505.5 529.499967" height="706" preserveAspectRatio="xMidYMid meet" version="1.0"><defs><clipPath id="c75d912ed7"><path d="M 14 114 L 493 114 L 493 415 L 14 415 Z M 14 114 " clip-rule="nonzero"/></clipPath><clipPath id="53736345d4"><path d="M 504.390625 142.460938 L 344.769531 528.875 L -0.0976562 386.417969 L 159.523438 0 Z M 504.390625 142.460938 " clip-rule="nonzero"/></clipPath><clipPath id="4387ad8d9d"><path d="M 504.390625 142.460938 L 344.769531 528.875 L -0.0976562 386.417969 L 159.523438 0 Z M 504.390625 142.460938 " clip-rule="nonzero"/></clipPath></defs><g clip-path="url(#c75d912ed7)"><g clip-path="url(#53736345d4)"><g clip-path="url(#4387ad8d9d)"><path fill="#ece7e4" d="M 384.398438 119.789062 C 406.4375 116.605469 429.527344 115.648438 451.136719 121.972656 C 462 125.203125 472.214844 130.230469 480.71875 137.871094 C 486.558594 143.0625 492.429688 149.703125 492.058594 157.980469 C 491.574219 173.480469 472.585938 182.320312 460.039062 186.199219 C 450.769531 189.097656 441.496094 189.394531 432.023438 191.042969 C 421.917969 192.699219 412.480469 196.875 404.496094 203.175781 C 388.789062 215.792969 379.488281 234.828125 362.445312 245.90625 C 347.246094 255.773438 328.226562 257.515625 310.125 257.035156 C 292.023438 256.554688 273.742188 254.117188 255.835938 256.859375 C 237.851562 259.566406 219.722656 268.492188 211.5625 284.769531 C 205.75 296.453125 205.875 310.046875 203.792969 322.910156 C 198.378906 356.648438 176.078125 387.175781 145.667969 402.601562 C 115.253906 418.027344 77.40625 418 47.003906 402.570312 C 36.972656 397.53125 27.707031 390.652344 21.421875 381.328125 C 15.136719 372.003906 12.484375 359.964844 16.066406 349.335938 C 19.617188 338.78125 28.726562 331.0625 36.273438 322.785156 C 54.808594 302.457031 65.339844 276.304688 73.871094 250.226562 C 82.402344 224.148438 89.539062 197.3125 102.558594 173.179688 C 115.578125 149.042969 135.5625 127.160156 161.738281 118.953125 C 202.59375 106.046875 245.542969 128.453125 288.316406 131.320312 C 317.902344 133.316406 347.101562 125.824219 376.378906 120.960938 C 379.0625 120.546875 381.746094 120.128906 384.398438 119.789062 Z M 384.398438 119.789062 " fill-opacity="1" fill-rule="nonzero"/></g></g></g></svg>