<svg xmlns="http://www.w3.org/2000/svg" xmlns:xlink="http://www.w3.org/1999/xlink" width="502" zoomAndPan="magnify" viewBox="0 0 376.5 378.749984" height="505" preserveAspectRatio="xMidYMid meet" version="1.0"><defs><clipPath id="42894009e5"><path d="M 46 44 L 300 44 L 300 334 L 46 334 Z M 46 44 " clip-rule="nonzero"/></clipPath><clipPath id="b0392378ec"><path d="M 0 155.519531 L 161.253906 0.109375 L 375.398438 222.304688 L 214.144531 377.714844 Z M 0 155.519531 " clip-rule="nonzero"/></clipPath><clipPath id="1a61b3529d"><path d="M 0 155.519531 L 161.253906 0.109375 L 375.398438 222.304688 L 214.144531 377.714844 Z M 0 155.519531 " clip-rule="nonzero"/></clipPath></defs><g clip-path="url(#42894009e5)"><g clip-path="url(#b0392378ec)"><g clip-path="url(#1a61b3529d)"><path fill="#ffb8cd" d="M 209.730469 272.023438 C 217.816406 264.234375 218.050781 251.398438 210.261719 243.316406 C 202.46875 235.234375 189.636719 234.996094 181.554688 242.789062 C 173.46875 250.578125 173.234375 263.410156 181.023438 271.496094 C 188.773438 279.535156 201.605469 279.773438 209.730469 272.023438 Z M 183.789062 245.109375 C 190.585938 238.5625 201.347656 238.800781 207.855469 245.554688 C 214.402344 252.347656 214.160156 263.109375 207.410156 269.617188 C 200.660156 276.121094 189.894531 275.964844 183.347656 269.171875 C 176.839844 262.421875 177.039062 251.613281 183.789062 245.109375 Z M 224.242188 282.089844 C 240.453125 266.46875 240.929688 240.628906 225.304688 224.421875 C 209.683594 208.210938 183.847656 207.734375 167.636719 223.355469 C 151.429688 238.980469 150.949219 264.816406 166.574219 281.027344 C 182.238281 297.195312 207.992188 297.667969 224.242188 282.089844 Z M 169.917969 225.722656 C 184.835938 211.34375 208.5625 211.78125 222.941406 226.699219 C 237.320312 241.621094 236.882812 265.347656 221.964844 279.726562 C 207.042969 294.105469 183.316406 293.667969 168.9375 278.746094 C 154.601562 263.785156 155.082031 240.101562 169.917969 225.722656 Z M 238.796875 292.113281 C 263.132812 268.660156 263.890625 229.863281 240.394531 205.484375 C 216.941406 181.148438 178.144531 180.390625 153.765625 203.886719 C 129.429688 227.339844 128.671875 266.136719 152.167969 290.515625 C 175.703125 314.851562 214.417969 315.609375 238.796875 292.113281 Z M 156.085938 206.292969 C 179.132812 184.082031 215.820312 184.71875 238.03125 207.761719 C 260.242188 230.808594 259.605469 267.496094 236.558594 289.707031 C 213.515625 311.917969 176.828125 311.285156 154.617188 288.238281 C 132.40625 265.191406 133.082031 228.546875 156.085938 206.292969 Z M 253.347656 302.222656 C 237.867188 317.226562 217.023438 325.457031 195.492188 325.058594 L 195.554688 321.765625 C 238.828125 322.351562 274.394531 287.746094 275.023438 244.425781 C 275.652344 201.109375 241.003906 165.585938 197.6875 164.957031 C 177.039062 164.703125 157.085938 172.570312 142.210938 186.90625 C 115.976562 212.4375 110.757812 252.714844 129.605469 284.058594 L 126.789062 285.78125 C 103.386719 247.214844 115.671875 196.976562 154.238281 173.574219 C 192.804688 150.167969 243.046875 162.457031 266.449219 201.023438 C 286.289062 233.65625 280.867188 275.703125 253.347656 302.222656 Z M 270.566406 167.863281 C 309.683594 208.535156 308.488281 273.214844 267.773438 312.371094 C 258.660156 321.15625 247.972656 328.136719 236.351562 333.035156 L 235.058594 329.96875 C 285.449219 308.9375 309.238281 251.011719 288.164062 200.664062 C 267.089844 150.316406 209.207031 126.484375 158.859375 147.558594 C 116.597656 165.148438 92 209.589844 99.445312 254.828125 L 96.183594 255.316406 C 86.988281 199.65625 124.660156 147.097656 180.363281 137.945312 C 213.488281 132.476562 247.238281 143.65625 270.566406 167.863281 Z M 285.613281 148.96875 L 283.246094 151.246094 C 237.539062 103.820312 161.972656 102.429688 114.546875 148.132812 C 93.089844 168.8125 80.160156 196.785156 78.261719 226.480469 L 74.96875 226.25 C 79.257812 158.675781 137.511719 107.339844 205.089844 111.628906 C 235.667969 113.667969 264.394531 126.953125 285.613281 148.96875 Z M 256.507812 98.976562 L 255.183594 101.992188 C 184.777344 70.246094 101.976562 101.617188 70.226562 172.023438 C 66.75 179.6875 64.023438 187.703125 61.972656 195.898438 L 58.777344 195.082031 C 77.765625 118.316406 155.40625 71.519531 232.125 90.546875 C 240.492188 92.601562 248.675781 95.414062 256.507812 98.976562 Z M 51.003906 161.023438 L 47.988281 159.703125 C 74.363281 98.953125 134.710938 60.117188 200.910156 61.253906 L 200.847656 64.546875 C 135.957031 63.476562 76.847656 101.53125 51.003906 161.023438 Z M 49.21875 118.042969 L 46.507812 116.175781 C 53.582031 105.875 61.699219 96.3125 70.730469 87.609375 C 90.980469 68.007812 115.535156 53.300781 142.425781 44.800781 L 143.464844 47.945312 C 116.957031 56.324219 92.875 70.746094 72.964844 90.015625 C 64.109375 98.554688 56.164062 107.949219 49.21875 118.042969 Z M 49.21875 118.042969 " fill-opacity="1" fill-rule="nonzero"/></g></g></g></svg>