<svg xmlns="http://www.w3.org/2000/svg" xmlns:xlink="http://www.w3.org/1999/xlink" width="220" zoomAndPan="magnify" viewBox="0 0 165 235.499993" height="314" preserveAspectRatio="xMidYMid meet" version="1.0"><defs><clipPath id="fc961fc11f"><path d="M 50 97.40625 L 115 97.40625 L 115 235 L 50 235 Z M 50 97.40625 " clip-rule="nonzero"/></clipPath><clipPath id="22d8c63ab0"><path d="M 0.175781 0 L 164.777344 0 L 164.777344 164.601562 L 0.175781 164.601562 Z M 0.175781 0 " clip-rule="nonzero"/></clipPath><clipPath id="1755d9cf4e"><path d="M 82.476562 0 C 37.023438 0 0.175781 36.847656 0.175781 82.300781 C 0.175781 127.753906 37.023438 164.601562 82.476562 164.601562 C 127.929688 164.601562 164.777344 127.753906 164.777344 82.300781 C 164.777344 36.847656 127.929688 0 82.476562 0 Z M 82.476562 0 " clip-rule="nonzero"/></clipPath><clipPath id="8c93005fa7"><path d="M 0.175781 0 L 164.777344 0 L 164.777344 164.601562 L 0.175781 164.601562 Z M 0.175781 0 " clip-rule="nonzero"/></clipPath><clipPath id="499be0f85b"><path d="M 82.476562 0 C 37.023438 0 0.175781 36.847656 0.175781 82.300781 C 0.175781 127.753906 37.023438 164.601562 82.476562 164.601562 C 127.929688 164.601562 164.777344 127.753906 164.777344 82.300781 C 164.777344 36.847656 127.929688 0 82.476562 0 Z M 82.476562 0 " clip-rule="nonzero"/></clipPath><clipPath id="7603d82b1b"><rect x="0" width="165" y="0" height="165"/></clipPath><clipPath id="f34746bc1f"><path d="M 27.4375 30.441406 L 137.453125 30.441406 L 137.453125 140.457031 L 27.4375 140.457031 Z M 27.4375 30.441406 " clip-rule="nonzero"/></clipPath></defs><g clip-path="url(#fc961fc11f)"><path fill="#452a47" d="M 51.882812 205.742188 L 79.011719 232.871094 C 80.894531 234.753906 83.988281 234.753906 85.871094 232.871094 L 113.0625 205.742188 C 114.941406 203.859375 114.941406 200.765625 113.0625 198.882812 C 111.179688 197.003906 108.085938 197.003906 106.203125 198.882812 L 87.328125 217.757812 L 87.328125 102.261719 C 87.328125 99.59375 85.144531 97.40625 82.472656 97.40625 C 79.800781 97.40625 77.617188 99.59375 77.617188 102.261719 L 77.617188 217.699219 L 58.742188 198.824219 C 57.769531 197.851562 56.558594 197.425781 55.28125 197.425781 C 54.007812 197.425781 52.792969 197.914062 51.824219 198.824219 C 50.003906 200.765625 50.003906 203.859375 51.882812 205.742188 Z M 51.882812 205.742188 " fill-opacity="1" fill-rule="nonzero"/></g><g clip-path="url(#22d8c63ab0)"><g clip-path="url(#1755d9cf4e)"><g transform="matrix(1, 0, 0, 1, 0.000000000000000028, 0)"><g clip-path="url(#7603d82b1b)"><g clip-path="url(#8c93005fa7)"><g clip-path="url(#499be0f85b)"><path fill="#452a47" d="M 0.175781 0 L 164.777344 0 L 164.777344 164.601562 L 0.175781 164.601562 Z M 0.175781 0 " fill-opacity="1" fill-rule="nonzero"/></g></g></g></g></g></g><g clip-path="url(#f34746bc1f)"><path fill="#ffffff" d="M 113.417969 54.175781 C 112.386719 46.492188 111.886719 39.785156 117.808594 33.851562 L 114.417969 30.441406 C 107.3125 37.546875 107.492188 45.816406 108.464844 53.488281 C 103.148438 52.804688 97.75 52.515625 92.550781 54.632812 L 92.484375 54.570312 L 90.925781 55.371094 C 88.894531 56.445312 87.0625 57.792969 85.4375 59.414062 C 83.8125 61.035156 82.460938 62.863281 81.382812 64.890625 L 80.574219 66.453125 L 80.640625 66.519531 C 78.507812 71.730469 78.796875 77.140625 79.476562 82.472656 C 74.121094 81.785156 68.6875 81.496094 63.453125 83.675781 L 63.386719 83.609375 L 61.8125 84.429688 C 59.816406 85.488281 58.023438 86.820312 56.433594 88.425781 C 55.792969 89.058594 55.191406 89.722656 54.625 90.417969 C 53.726562 91.542969 52.953125 92.75 52.304688 94.035156 L 51.535156 95.570312 L 51.59375 95.636719 C 49.511719 100.8125 49.789062 106.179688 50.480469 111.46875 C 42.824219 110.5 34.546875 110.3125 27.4375 117.421875 L 30.847656 120.816406 C 36.78125 114.878906 43.496094 115.351562 51.167969 116.410156 C 52.226562 124.09375 52.703125 130.796875 46.761719 136.738281 L 50.171875 140.140625 C 57.28125 133.03125 57.089844 124.753906 56.121094 117.101562 C 61.410156 117.800781 66.777344 118.078125 71.960938 115.996094 L 72.019531 116.0625 L 73.574219 115.273438 C 73.910156 115.097656 74.25 114.917969 74.574219 114.722656 C 76.261719 113.742188 77.789062 112.558594 79.160156 111.167969 C 80.765625 109.578125 82.097656 107.785156 83.152344 105.789062 L 83.980469 104.222656 L 83.914062 104.15625 C 86.082031 98.921875 85.792969 93.480469 85.117188 88.125 C 90.449219 88.804688 95.859375 89.09375 101.070312 86.960938 L 101.144531 87.027344 L 102.710938 86.21875 C 104.722656 85.148438 106.53125 83.800781 108.132812 82.175781 C 109.773438 80.554688 111.128906 78.722656 112.199219 76.675781 L 113 75.109375 L 112.988281 75.027344 C 115.101562 69.839844 114.796875 64.441406 114.132812 59.113281 C 121.789062 60.085938 130.070312 60.277344 137.179688 53.167969 L 133.773438 49.757812 C 127.808594 55.703125 121.109375 55.234375 113.417969 54.175781 Z M 89.746094 62.007812 L 89.972656 61.808594 C 90.28125 61.546875 90.574219 61.296875 90.902344 61.058594 C 91.140625 60.886719 91.390625 60.722656 91.636719 60.566406 L 107.046875 75.976562 C 106.886719 76.21875 106.730469 76.464844 106.546875 76.707031 C 106.320312 77.019531 106.066406 77.308594 105.808594 77.628906 L 105.609375 77.863281 C 105.335938 78.171875 105.054688 78.464844 104.757812 78.773438 C 104.464844 79.082031 104.15625 79.375 103.859375 79.609375 L 103.632812 79.808594 C 103.324219 80.070312 103.03125 80.320312 102.699219 80.554688 C 102.46875 80.726562 102.234375 80.882812 102 81.03125 L 86.550781 65.621094 C 86.707031 65.386719 86.863281 65.144531 87.039062 64.910156 C 87.273438 64.589844 87.527344 64.277344 87.792969 63.96875 L 87.984375 63.746094 C 88.257812 63.445312 88.527344 63.144531 88.824219 62.851562 C 89.117188 62.554688 89.4375 62.257812 89.746094 61.988281 Z M 60.722656 91.007812 L 60.945312 90.8125 C 61.246094 90.558594 61.546875 90.3125 61.855469 90.082031 L 61.910156 90.039062 C 62.121094 89.890625 62.335938 89.746094 62.554688 89.601562 L 77.988281 105.042969 C 77.84375 105.257812 77.699219 105.476562 77.542969 105.691406 L 77.542969 105.734375 C 77.316406 106.042969 77.066406 106.335938 76.808594 106.644531 L 76.617188 106.867188 C 76.351562 107.167969 76.082031 107.46875 75.785156 107.757812 C 75.488281 108.058594 75.183594 108.359375 74.875 108.609375 L 74.640625 108.8125 C 74.34375 109.066406 74.039062 109.3125 73.738281 109.535156 L 73.6875 109.578125 C 73.433594 109.757812 73.175781 109.929688 72.917969 110.097656 L 57.492188 94.714844 C 57.664062 94.457031 57.824219 94.195312 58.011719 93.949219 L 58.046875 93.902344 C 58.277344 93.59375 58.519531 93.300781 58.769531 92.992188 L 58.976562 92.757812 C 59.253906 92.449219 59.53125 92.15625 59.835938 91.835938 C 60.144531 91.515625 60.425781 91.292969 60.722656 91.007812 Z M 55.433594 112.15625 C 54.832031 107.6875 54.390625 103.410156 55.433594 99.445312 L 68.167969 112.179688 C 64.1875 113.199219 59.902344 112.777344 55.433594 112.15625 Z M 67.230469 87.453125 C 71.261719 86.371094 75.609375 86.796875 80.160156 87.453125 C 80.761719 92.011719 81.21875 96.359375 80.128906 100.382812 Z M 84.425781 83.160156 C 83.820312 78.640625 83.375 74.316406 84.425781 70.3125 L 97.257812 83.152344 C 93.269531 84.214844 88.941406 83.792969 84.425781 83.164062 Z M 96.355469 58.457031 C 100.335938 57.414062 104.644531 57.855469 109.152344 58.457031 C 109.753906 62.964844 110.199219 67.265625 109.152344 71.253906 Z M 96.355469 58.457031 " fill-opacity="1" fill-rule="nonzero"/></g></svg>