<svg xmlns="http://www.w3.org/2000/svg" xmlns:xlink="http://www.w3.org/1999/xlink" width="1116" zoomAndPan="magnify" viewBox="0 0 836.88 743.249977" height="991" preserveAspectRatio="xMidYMid meet" version="1.0"><defs><filter x="0%" y="0%" width="100%" height="100%" id="1cc95f352b"><feColorMatrix values="0 0 0 0 1 0 0 0 0 1 0 0 0 0 1 0 0 0 1 0" color-interpolation-filters="sRGB"/></filter><clipPath id="1168d94524"><path d="M 0.363281 0 L 818 0 L 818 734 L 0.363281 734 Z M 0.363281 0 " clip-rule="nonzero"/></clipPath><mask id="f01c89e8b0"><g filter="url(#1cc95f352b)"><rect x="-83.688" width="1004.256" fill="#000000" y="-74.324998" height="891.899972" fill-opacity="0.35"/></g></mask><clipPath id="8e6a4c639f"><path d="M 64 94 L 708 94 L 708 648 L 64 648 Z M 64 94 " clip-rule="nonzero"/></clipPath><clipPath id="74fa3a8002"><path d="M 0.363281 455.785156 L 208.296875 -0.296875 L 836.855469 286.269531 L 628.925781 742.351562 Z M 0.363281 455.785156 " clip-rule="nonzero"/></clipPath><clipPath id="5d9a0a77b2"><path d="M 0.363281 455.785156 L 208.296875 -0.296875 L 836.855469 286.269531 L 628.925781 742.351562 Z M 0.363281 455.785156 " clip-rule="nonzero"/></clipPath><clipPath id="f0368288d5"><rect x="0" width="818" y="0" height="734"/></clipPath></defs><g clip-path="url(#1168d94524)"><g mask="url(#f01c89e8b0)"><g transform="matrix(1, 0, 0, 1, 0.000000000000000056, 0)"><g clip-path="url(#f0368288d5)"><g clip-path="url(#8e6a4c639f)"><g clip-path="url(#74fa3a8002)"><g clip-path="url(#5d9a0a77b2)"><path fill="#ffffff" d="M 532.449219 525.871094 C 542.867188 503.019531 532.816406 476.121094 509.964844 465.707031 C 487.113281 455.289062 460.21875 465.339844 449.800781 488.191406 C 439.382812 511.039062 449.433594 537.9375 472.285156 548.355469 C 495.011719 558.714844 521.910156 548.664062 532.449219 525.871094 Z M 456.363281 491.183594 C 465.117188 471.976562 487.714844 463.636719 506.796875 472.335938 C 526 481.089844 534.34375 503.683594 525.644531 522.765625 C 516.941406 541.847656 494.414062 550.367188 475.210938 541.613281 C 456.128906 532.914062 447.664062 510.265625 456.363281 491.183594 Z M 570.910156 534.890625 C 591.800781 489.070312 571.566406 434.921875 525.742188 414.03125 C 479.921875 393.140625 425.773438 413.375 404.882812 459.195312 C 383.992188 505.019531 404.230469 559.167969 450.050781 580.058594 C 495.925781 600.824219 549.898438 580.65625 570.910156 534.890625 Z M 411.570312 462.246094 C 430.796875 420.070312 480.519531 401.488281 522.695312 420.714844 C 564.871094 439.941406 583.453125 489.667969 564.226562 531.84375 C 544.996094 574.015625 495.273438 592.601562 453.097656 573.371094 C 410.976562 554.023438 392.515625 504.355469 411.570312 462.246094 Z M 609.425781 543.789062 C 640.789062 474.996094 610.492188 393.652344 541.578125 362.234375 C 472.785156 330.871094 391.441406 361.167969 360.023438 430.082031 C 328.660156 498.875 358.957031 580.21875 427.871094 611.636719 C 496.839844 642.933594 578.007812 612.703125 609.425781 543.789062 Z M 366.828125 433.1875 C 396.53125 368.039062 473.382812 339.21875 538.53125 368.917969 C 603.675781 398.621094 632.5 475.472656 602.796875 540.621094 C 573.097656 605.765625 496.242188 634.589844 431.097656 604.886719 C 365.949219 575.1875 337.25 498.386719 366.828125 433.1875 Z M 648.007812 552.863281 C 628.128906 596.796875 591.519531 631.046875 546.394531 647.910156 L 543.816406 641.007812 C 634.339844 606.675781 679.902344 505.453125 645.621094 414.808594 C 611.34375 324.160156 510.066406 278.722656 419.421875 313 C 376.253906 329.433594 341.207031 362.195312 322.035156 404.25 C 288.429688 478.921875 310.660156 567.007812 375.632812 616.742188 L 371.179688 622.640625 C 290.800781 561.625 275.089844 447 336.105469 366.621094 C 397.121094 286.246094 511.742188 270.53125 592.121094 331.546875 C 660.207031 383.140625 683.472656 475.078125 648.007812 552.863281 Z M 573.445312 259.171875 C 688.246094 311.65625 738.902344 447.203125 686.359375 562.128906 C 674.613281 587.894531 658.113281 611.203125 637.960938 630.933594 L 632.75 625.621094 C 720.3125 540.464844 722.214844 400.398438 637.003906 312.957031 C 551.792969 225.515625 411.78125 223.492188 324.339844 308.703125 C 250.867188 380.023438 236.203125 492.691406 288.855469 580.703125 L 282.472656 584.398438 C 217.617188 476.144531 252.808594 335.839844 361.1875 271.035156 C 425.613281 232.4375 505.015625 227.972656 573.445312 259.171875 Z M 589.222656 207.496094 L 586.175781 214.179688 C 452.113281 153.0625 293.738281 212.246094 232.621094 346.308594 C 204.96875 406.957031 201.042969 475.78125 221.492188 539.128906 L 214.457031 541.351562 C 167.859375 397.230469 246.886719 242.5625 391.007812 195.960938 C 456.3125 175.085938 526.992188 179.125 589.222656 207.496094 Z M 487.597656 127.398438 L 487.320312 134.761719 C 314.753906 126.550781 168.246094 259.851562 160.035156 432.421875 C 159.097656 451.226562 160.015625 470.140625 162.480469 488.882812 L 155.160156 489.800781 C 131.589844 314.488281 254.683594 153.335938 429.941406 129.886719 C 449.035156 127.289062 468.371094 126.414062 487.597656 127.398438 Z M 111.003906 425.335938 L 103.640625 425.0625 C 108.605469 276.996094 202.257812 146.609375 340.921875 94.585938 L 343.5 101.488281 C 207.609375 152.574219 115.898438 280.320312 111.003906 425.335938 Z M 71.980469 337.371094 L 64.804688 335.714844 C 71.0625 308.472656 80.089844 281.90625 91.726562 256.382812 C 117.757812 198.960938 156.761719 148.183594 205.726562 108.40625 L 210.472656 114.09375 C 162.207031 153.308594 123.945312 203.101562 98.355469 259.550781 C 86.941406 284.589844 78.132812 310.667969 71.980469 337.371094 Z M 71.980469 337.371094 " fill-opacity="1" fill-rule="nonzero"/></g></g></g></g></g></g></g></svg>