<svg xmlns="http://www.w3.org/2000/svg" xmlns:xlink="http://www.w3.org/1999/xlink" width="721" zoomAndPan="magnify" viewBox="0 0 540.75 569.249982" height="759" preserveAspectRatio="xMidYMid meet" version="1.0"><defs><clipPath id="f95ead70fc"><path d="M 0.230469 4 L 536 4 L 536 568 L 0.230469 568 Z M 0.230469 4 " clip-rule="nonzero"/></clipPath><clipPath id="cf6e69bfe5"><path d="M 379.214844 -0.00390625 L 539.785156 424.546875 L 160.773438 567.898438 L 0.203125 143.34375 Z M 379.214844 -0.00390625 " clip-rule="nonzero"/></clipPath><clipPath id="4ee130dc00"><path d="M 15 112 L 527 112 L 527 446 L 15 446 Z M 15 112 " clip-rule="nonzero"/></clipPath><clipPath id="9ef8569b2c"><path d="M 379.214844 -4.003906 L 539.785156 420.546875 L 160.773438 563.898438 L 0.203125 139.34375 Z M 379.214844 -4.003906 " clip-rule="nonzero"/></clipPath><clipPath id="e6f150e12f"><path d="M 539.777344 420.527344 L 379.207031 -4.023438 L 0.195312 139.324219 L 160.765625 563.875 Z M 539.777344 420.527344 " clip-rule="nonzero"/></clipPath><clipPath id="7804592ad3"><rect x="0" width="536" y="0" height="564"/></clipPath></defs><g clip-path="url(#f95ead70fc)"><g clip-path="url(#cf6e69bfe5)"><g transform="matrix(1, 0, 0, 1, 0.000000000000000111, 4)"><g clip-path="url(#7804592ad3)"><g clip-path="url(#4ee130dc00)"><g clip-path="url(#9ef8569b2c)"><g clip-path="url(#e6f150e12f)"><path fill="#ffb8cd" d="M 408.785156 441.199219 C 432.601562 445.378906 457.636719 447.175781 481.296875 441.015625 C 493.199219 437.863281 504.449219 432.742188 513.933594 424.726562 C 520.441406 419.28125 527.027344 412.265625 526.898438 403.265625 C 526.882812 386.425781 506.554688 376.207031 493.0625 371.585938 C 483.09375 368.136719 473.039062 367.511719 462.8125 365.414062 C 451.898438 363.28125 441.789062 358.441406 433.328125 351.34375 C 416.6875 337.128906 407.21875 316.164062 389.078125 303.582031 C 372.902344 292.371094 352.3125 289.855469 332.648438 289.785156 C 312.984375 289.714844 293.0625 291.761719 273.714844 288.203125 C 254.28125 284.675781 234.894531 274.390625 226.570312 256.457031 C 220.644531 243.585938 221.222656 228.828125 219.382812 214.796875 C 214.609375 178 191.402344 144.132812 158.894531 126.390625 C 126.386719 108.652344 85.304688 107.441406 51.792969 123.195312 C 40.742188 128.335938 30.457031 135.5 23.328125 145.414062 C 16.199219 155.332031 12.929688 168.3125 16.472656 179.96875 C 19.980469 191.542969 29.617188 200.21875 37.535156 209.449219 C 56.992188 232.125 67.566406 260.855469 75.972656 289.445312 C 84.378906 318.03125 91.25 347.394531 104.589844 374.019531 C 117.933594 400.644531 138.910156 425.054688 167.054688 434.820312 C 210.980469 450.164062 258.339844 427.25 304.863281 425.535156 C 337.042969 424.339844 368.492188 433.429688 400.117188 439.664062 C 403.015625 440.203125 405.914062 440.742188 408.785156 441.199219 Z M 408.785156 441.199219 " fill-opacity="1" fill-rule="nonzero"/></g></g></g></g></g></g></g></svg>